<svg xmlns="http://www.w3.org/2000/svg" width="70" height="70" viewBox="0 0 70 70">
  <g id="Gruppe_76635" data-name="Gruppe 76635" transform="translate(-70 -36)">
    <rect id="Rechteck_81704" data-name="Rechteck 81704" width="70" height="70" transform="translate(70 36)" fill="#fff"/>
    <path id="Pfad_3036" data-name="Pfad 3036" d="M4210.67,6041.735c0-.014,0-.027,0-.04s-.006-.038-.01-.058-.006-.032-.011-.047a.389.389,0,0,0-.012-.047.27.27,0,0,0-.016-.049l0-.02-5.064-13.96a1.055,1.055,0,0,0-.992-.7h-25.762a1.055,1.055,0,0,0-.992.7l-5.065,13.96a.157.157,0,0,1-.005.02.374.374,0,0,0-.015.049.389.389,0,0,0-.012.047c0,.016-.007.032-.011.047s-.006.039-.009.058,0,.026,0,.04c0,.033-.005.065-.005.1v11.2a1.056,1.056,0,0,0,1.055,1.055h35.891a1.055,1.055,0,0,0,1.055-1.055v-11.2C4210.675,6041.8,4210.673,6041.768,4210.67,6041.735Zm-31.136-12.806h24.282l4.3,11.85H4196.74a1.056,1.056,0,0,0-1.024.8l-.644,2.578h-6.793l-.644-2.578a1.057,1.057,0,0,0-1.024-.8h-11.375Zm-4.75,23.053v-9.093h11l.644,2.577a1.057,1.057,0,0,0,1.024.8h8.441a1.056,1.056,0,0,0,1.023-.8l.644-2.577h11v9.093Zm4.295-14.643a.632.632,0,0,1,.632-.633h23.926a.633.633,0,0,1,0,1.266h-23.926A.632.632,0,0,1,4179.08,6037.34Zm.9-2.532a.633.633,0,0,1,.633-.633h22.131a.633.633,0,1,1,0,1.267h-22.131A.634.634,0,0,1,4179.976,6034.808Zm.9-2.533a.633.633,0,0,1,.633-.632h20.338a.633.633,0,1,1,0,1.265h-20.338A.633.633,0,0,1,4180.873,6032.275Z" transform="translate(-4085.676 -5970.818)" fill="#e20074"/>
  </g>
</svg>
